<svg width="512" height="512" xmlns="http://www.w3.org/2000/svg">
 <!-- Font Awesome Free 5.15.1 by @fontawesome - https://fontawesome.com License - https://fontawesome.com/license/free (Icons: CC BY 4.0, Fonts: SIL OFL 1.1, Code: MIT License) -->

 <g>
  <title>background</title>
  <rect fill="none" id="canvas_background" height="514" width="514" y="-1" x="-1"/>
 </g>
 <g>
  <title>Layer 1</title>
  <path fill="white" id="svg_1" d="m504,256c0,-137 -111,-248 -248,-248s-248,111 -248,248c0,123.78 90.69,226.38 209.25,245l0,-173.31l-63,0l0,-71.69l63,0l0,-54.64c0,-62.15 37,-96.48 93.67,-96.48c27.14,0 55.52,4.84 55.52,4.84l0,61l-31.28,0c-30.8,0 -40.41,19.12 -40.41,38.73l0,46.55l68.78,0l-11,71.69l-57.78,0l0,173.31c118.56,-18.62 209.25,-121.22 209.25,-245z"/>
 </g>
</svg>